<mxfile host="app.diagrams.net" modified="2024-05-27T16:03:26.735Z" agent="Mozilla/5.0 (Windows NT 10.0; Win64; x64; rv:126.0) Gecko/20100101 Firefox/126.0" version="24.4.9" etag="3ZLOseBNxXznXHvACZYG" type="github">
  <diagram name="Page-1" id="LkqDW81Ij7ki9k4FEpZL">
    <mxGraphModel>
      <root>
        <mxCell id="0" />
        <mxCell id="1" parent="0" />
      </root>
    </mxGraphModel>
  </diagram>
</mxfile>
